<?xml version="1.0" encoding="us-ascii" standalone="no"?><svg xmlns="http://www.w3.org/2000/svg" xmlns:xlink="http://www.w3.org/1999/xlink" contentStyleType="text/css" height="1005px" preserveAspectRatio="none" style="width:1475px;height:1005px;background:#FFFFFF;" version="1.1" viewBox="0 0 1475 1005" width="1475px" zoomAndPan="magnify"><defs/><g><text fill="#000000" font-family="sans-serif" font-size="14" font-weight="bold" lengthAdjust="spacing" textLength="135" x="668.75" y="32.9951">&#32447;&#27573;&#26641;&#25972;&#20307;&#25805;&#20316;&#27969;&#31243;</text><ellipse cx="719.25" cy="57.2969" fill="#222222" rx="10" ry="10" style="stroke:#222222;stroke-width:1.0;"/><rect fill="none" height="231.8984" style="stroke:#000000;stroke-width:1.5;" width="367" x="642.25" y="77.2969"/><path d="M759.25,77.2969 L759.25,86.5938 L749.25,96.5938 L642.25,96.5938 " fill="none" style="stroke:#000000;stroke-width:1.5;"/><text fill="#000000" font-family="sans-serif" font-size="14" lengthAdjust="spacing" textLength="107" x="645.25" y="91.292">1. &#21021;&#22987;&#21270; (Build)</text><rect fill="#F1F1F1" height="33.9688" rx="12.5" ry="12.5" style="stroke:#181818;stroke-width:0.5;" width="92" x="673.25" y="113.5938"/><text fill="#000000" font-family="sans-serif" font-size="12" lengthAdjust="spacing" textLength="72" x="683.25" y="134.7324">&#25509;&#25910;&#36755;&#20837;&#25968;&#32452;</text><path d="M806.25,157.5625 L806.25,196.3945 L786.25,200.3945 L806.25,204.3945 L806.25,243.2266 A0,0 0 0 0 806.25,243.2266 L999.25,243.2266 A0,0 0 0 0 999.25,243.2266 L999.25,167.5625 L989.25,157.5625 L806.25,157.5625 A0,0 0 0 0 806.25,157.5625 " fill="#FEFFDD" style="stroke:#181818;stroke-width:0.5;"/><path d="M989.25,157.5625 L989.25,167.5625 L999.25,167.5625 L989.25,157.5625 " fill="#FEFFDD" style="stroke:#181818;stroke-width:0.5;"/><text fill="#000000" font-family="sans-serif" font-size="13" font-weight="bold" lengthAdjust="spacing" textLength="61" x="812.25" y="174.6294">&#26680;&#24515;&#36923;&#36753;:</text><text fill="#000000" font-family="sans-serif" font-size="13" lengthAdjust="spacing" textLength="87" x="812.25" y="189.7622">- &#20174;&#26681;&#33410;&#28857;&#24320;&#22987;</text><text fill="#000000" font-family="sans-serif" font-size="13" lengthAdjust="spacing" textLength="139" x="812.25" y="204.895">- &#36882;&#24402;&#22320;&#23558;&#21306;&#38388;&#19968;&#20998;&#20026;&#20108;</text><text fill="#000000" font-family="sans-serif" font-size="13" lengthAdjust="spacing" textLength="152" x="812.25" y="220.0278">- &#30452;&#21040;&#22788;&#29702;&#23436;&#25152;&#26377;&#21494;&#23376;&#33410;&#28857;</text><text fill="#000000" font-family="sans-serif" font-size="13" lengthAdjust="spacing" textLength="172" x="812.25" y="235.1606">- &#21521;&#19978;&#21512;&#24182;(pushUp)&#33410;&#28857;&#20449;&#24687;</text><rect fill="#F1F1F1" height="33.9688" rx="12.5" ry="12.5" style="stroke:#181818;stroke-width:0.5;" width="134" x="652.25" y="183.4102"/><text fill="#000000" font-family="sans-serif" font-size="12" font-weight="bold" lengthAdjust="spacing" textLength="114" x="662.25" y="204.5488">&#26500;&#24314;&#32447;&#27573;&#26641; (Build)</text><rect fill="#F1F1F1" height="33.9688" rx="12.5" ry="12.5" style="stroke:#181818;stroke-width:0.5;" width="104" x="667.25" y="263.2266"/><text fill="#000000" font-family="sans-serif" font-size="12" lengthAdjust="spacing" textLength="84" x="677.25" y="284.3652">&#32447;&#27573;&#26641;&#26500;&#24314;&#23436;&#25104;</text><rect fill="#F1F1F1" height="33.9688" rx="12.5" ry="12.5" style="stroke:#181818;stroke-width:0.5;" width="92" x="673.25" y="373.1953"/><text fill="#000000" font-family="sans-serif" font-size="12" lengthAdjust="spacing" textLength="72" x="683.25" y="394.334">&#31561;&#24453;&#29992;&#25143;&#25805;&#20316;</text><polygon fill="#F1F1F1" points="672.25,427.1641,766.25,427.1641,778.25,439.1641,766.25,451.1641,672.25,451.1641,660.25,439.1641,672.25,427.1641" style="stroke:#181818;stroke-width:0.5;"/><text fill="#000000" font-family="sans-serif" font-size="11" lengthAdjust="spacing" textLength="94" x="672.25" y="442.9722">&#36873;&#25321;&#35201;&#25191;&#34892;&#30340;&#25805;&#20316;?</text><rect fill="none" height="261.3125" style="stroke:#000000;stroke-width:1.5;" width="469" x="11" y="474.3169"/><path d="M122,474.3169 L122,483.6138 L112,493.6138 L11,493.6138 " fill="none" style="stroke:#000000;stroke-width:1.5;"/><text fill="#000000" font-family="sans-serif" font-size="14" lengthAdjust="spacing" textLength="101" x="14" y="488.312">2. &#25191;&#34892;&#21306;&#38388;&#26597;&#35810;</text><rect fill="#F1F1F1" height="33.9688" rx="12.5" ry="12.5" style="stroke:#181818;stroke-width:0.5;" width="128" x="27" y="510.6138"/><text fill="#000000" font-family="sans-serif" font-size="12" lengthAdjust="spacing" textLength="108" x="37" y="531.7524">&#36755;&#20837;&#26597;&#35810;&#21306;&#38388; [L, R]</text><path d="M181,564.5825 L181,610.981 L161,614.981 L181,618.981 L181,665.3794 A0,0 0 0 0 181,665.3794 L470,665.3794 A0,0 0 0 0 470,665.3794 L470,574.5825 L460,564.5825 L181,564.5825 A0,0 0 0 0 181,564.5825 " fill="#FEFFDD" style="stroke:#181818;stroke-width:0.5;"/><path d="M460,564.5825 L460,574.5825 L470,574.5825 L460,564.5825 " fill="#FEFFDD" style="stroke:#181818;stroke-width:0.5;"/><text fill="#000000" font-family="sans-serif" font-size="13" font-weight="bold" lengthAdjust="spacing" textLength="61" x="187" y="581.6494">&#26680;&#24515;&#36923;&#36753;:</text><text fill="#000000" font-family="sans-serif" font-size="13" lengthAdjust="spacing" textLength="213" x="187" y="596.7822">1. &#26816;&#26597;&#24182;&#19979;&#25512;&#25042;&#24816;&#26631;&#35760; (pushDown)</text><text fill="#000000" font-family="sans-serif" font-size="13" lengthAdjust="spacing" textLength="124" x="187" y="611.915">2. &#21028;&#26029;&#21306;&#38388;&#37325;&#21472;&#24773;&#20917;:</text><text fill="#000000" font-family="sans-serif" font-size="13" lengthAdjust="spacing" textLength="5" x="199" y="627.0479">-</text><text fill="#000000" font-family="sans-serif" font-size="13" font-weight="bold" lengthAdjust="spacing" textLength="61" x="208" y="627.0479">&#23436;&#20840;&#21253;&#21547;:</text><text fill="#000000" font-family="sans-serif" font-size="13" lengthAdjust="spacing" textLength="117" x="273" y="627.0479">&#30452;&#25509;&#36820;&#22238;&#24403;&#21069;&#33410;&#28857;&#20540;</text><text fill="#000000" font-family="sans-serif" font-size="13" lengthAdjust="spacing" textLength="5" x="199" y="642.1807">-</text><text fill="#000000" font-family="sans-serif" font-size="13" font-weight="bold" lengthAdjust="spacing" textLength="61" x="208" y="642.1807">&#37096;&#20998;&#37325;&#21472;:</text><text fill="#000000" font-family="sans-serif" font-size="13" lengthAdjust="spacing" textLength="182" x="273" y="642.1807">&#36882;&#24402;&#26597;&#35810;&#24038;&#21491;&#23376;&#33410;&#28857;&#24182;&#21512;&#24182;&#32467;&#26524;</text><text fill="#000000" font-family="sans-serif" font-size="13" lengthAdjust="spacing" textLength="5" x="199" y="657.3135">-</text><text fill="#000000" font-family="sans-serif" font-size="13" font-weight="bold" lengthAdjust="spacing" textLength="61" x="208" y="657.3135">&#27627;&#26080;&#20132;&#38598;:</text><text fill="#000000" font-family="sans-serif" font-size="13" lengthAdjust="spacing" textLength="100" x="273" y="657.3135">&#36820;&#22238;&#40664;&#35748;&#20540; (&#22914;0)</text><rect fill="#F1F1F1" height="33.9688" rx="12.5" ry="12.5" style="stroke:#181818;stroke-width:0.5;" width="140" x="21" y="597.9966"/><text fill="#000000" font-family="sans-serif" font-size="12" lengthAdjust="spacing" textLength="120" x="31" y="619.1353">&#20174;&#26681;&#33410;&#28857;&#24320;&#22987;&#36882;&#24402;&#26597;&#25214;</text><rect fill="#F1F1F1" height="33.9688" rx="12.5" ry="12.5" style="stroke:#181818;stroke-width:0.5;" width="92" x="45" y="687.52"/><text fill="#000000" font-family="sans-serif" font-size="12" lengthAdjust="spacing" textLength="72" x="55" y="708.6587">&#36755;&#20986;&#26597;&#35810;&#32467;&#26524;</text><rect fill="none" height="324.4219" style="stroke:#000000;stroke-width:1.5;" width="350" x="490" y="474.3169"/><path d="M601,474.3169 L601,483.6138 L591,493.6138 L490,493.6138 " fill="none" style="stroke:#000000;stroke-width:1.5;"/><text fill="#000000" font-family="sans-serif" font-size="14" lengthAdjust="spacing" textLength="101" x="493" y="488.312">3. &#25191;&#34892;&#21333;&#28857;&#26356;&#26032;</text><rect fill="#F1F1F1" height="33.9688" rx="12.5" ry="12.5" style="stroke:#181818;stroke-width:0.5;" width="182" x="574" y="510.6138"/><text fill="#000000" font-family="sans-serif" font-size="12" lengthAdjust="spacing" textLength="162" x="584" y="531.7524">&#36755;&#20837;&#26356;&#26032;&#20301;&#32622; [idx] &#21644;&#20540; [val]</text><rect fill="#F1F1F1" height="33.9688" rx="12.5" ry="12.5" style="stroke:#181818;stroke-width:0.5;" width="200" x="565" y="564.5825"/><text fill="#000000" font-family="sans-serif" font-size="12" lengthAdjust="spacing" textLength="180" x="575" y="585.7212">&#20174;&#26681;&#33410;&#28857;&#36882;&#24402;&#26597;&#25214;&#21040;&#30446;&#26631;&#21494;&#23376;&#33410;&#28857;</text><rect fill="#F1F1F1" height="33.9688" rx="12.5" ry="12.5" style="stroke:#181818;stroke-width:0.5;" width="116" x="607" y="633.5513"/><text fill="#000000" font-family="sans-serif" font-size="12" lengthAdjust="spacing" textLength="96" x="617" y="654.6899">&#26356;&#26032;&#21494;&#23376;&#33410;&#28857;&#30340;&#20540;</text><rect fill="#F1F1F1" height="33.9688" rx="12.5" ry="12.5" style="stroke:#181818;stroke-width:0.5;" width="330" x="500" y="689.6606"/><text fill="#000000" font-family="sans-serif" font-size="12" lengthAdjust="spacing" textLength="310" x="510" y="710.7993">&#22312;&#36882;&#24402;&#36820;&#22238;&#30340;&#36335;&#24452;&#19978;&#65292;&#36880;&#23618;&#21521;&#19978;&#21512;&#24182;(pushUp)&#29238;&#33410;&#28857;&#30340;&#20540;</text><rect fill="#F1F1F1" height="33.9688" rx="12.5" ry="12.5" style="stroke:#181818;stroke-width:0.5;" width="68" x="631" y="752.77"/><text fill="#000000" font-family="sans-serif" font-size="12" lengthAdjust="spacing" textLength="48" x="641" y="773.9087">&#26356;&#26032;&#23436;&#25104;</text><rect fill="none" height="261.3125" style="stroke:#000000;stroke-width:1.5;" width="577.5" x="860" y="474.3169"/><path d="M971,474.3169 L971,483.6138 L961,493.6138 L860,493.6138 " fill="none" style="stroke:#000000;stroke-width:1.5;"/><text fill="#000000" font-family="sans-serif" font-size="14" lengthAdjust="spacing" textLength="101" x="863" y="488.312">4. &#25191;&#34892;&#21306;&#38388;&#26356;&#26032;</text><rect fill="#F1F1F1" height="33.9688" rx="12.5" ry="12.5" style="stroke:#181818;stroke-width:0.5;" width="187" x="870" y="510.6138"/><text fill="#000000" font-family="sans-serif" font-size="12" lengthAdjust="spacing" textLength="167" x="880" y="531.7524">&#36755;&#20837;&#26356;&#26032;&#21306;&#38388; [L, R] &#21644;&#20540; [val]</text><path d="M1053.5,564.5825 L1053.5,610.981 L1033.5,614.981 L1053.5,618.981 L1053.5,665.3794 A0,0 0 0 0 1053.5,665.3794 L1427.5,665.3794 A0,0 0 0 0 1427.5,665.3794 L1427.5,574.5825 L1417.5,564.5825 L1053.5,564.5825 A0,0 0 0 0 1053.5,564.5825 " fill="#FEFFDD" style="stroke:#181818;stroke-width:0.5;"/><path d="M1417.5,564.5825 L1417.5,574.5825 L1427.5,574.5825 L1417.5,564.5825 " fill="#FEFFDD" style="stroke:#181818;stroke-width:0.5;"/><text fill="#000000" font-family="sans-serif" font-size="13" font-weight="bold" lengthAdjust="spacing" textLength="61" x="1059.5" y="581.6494">&#26680;&#24515;&#36923;&#36753;:</text><text fill="#000000" font-family="sans-serif" font-size="13" lengthAdjust="spacing" textLength="213" x="1059.5" y="596.7822">1. &#26816;&#26597;&#24182;&#19979;&#25512;&#25042;&#24816;&#26631;&#35760; (pushDown)</text><text fill="#000000" font-family="sans-serif" font-size="13" lengthAdjust="spacing" textLength="124" x="1059.5" y="611.915">2. &#21028;&#26029;&#21306;&#38388;&#37325;&#21472;&#24773;&#20917;:</text><text fill="#000000" font-family="sans-serif" font-size="13" lengthAdjust="spacing" textLength="5" x="1071.5" y="627.0479">-</text><text fill="#000000" font-family="sans-serif" font-size="13" font-weight="bold" lengthAdjust="spacing" textLength="61" x="1080.5" y="627.0479">&#23436;&#20840;&#21253;&#21547;:</text><text fill="#000000" font-family="sans-serif" font-size="13" lengthAdjust="spacing" textLength="4" x="1141.5" y="627.0479">&#160;</text><text fill="#000000" font-family="sans-serif" font-size="13" font-weight="bold" lengthAdjust="spacing" textLength="84" x="1145.5" y="627.0479">&#35774;&#32622;&#25042;&#24816;&#26631;&#35760;</text><text fill="#000000" font-family="sans-serif" font-size="13" lengthAdjust="spacing" textLength="164" x="1229.5" y="627.0479">, &#26356;&#26032;&#24403;&#21069;&#33410;&#28857;&#20540;&#21518;&#31435;&#21363;&#36820;&#22238;</text><text fill="#000000" font-family="sans-serif" font-size="13" lengthAdjust="spacing" textLength="5" x="1071.5" y="642.1807">-</text><text fill="#000000" font-family="sans-serif" font-size="13" font-weight="bold" lengthAdjust="spacing" textLength="61" x="1080.5" y="642.1807">&#37096;&#20998;&#37325;&#21472;:</text><text fill="#000000" font-family="sans-serif" font-size="13" lengthAdjust="spacing" textLength="267" x="1145.5" y="642.1807">&#36882;&#24402;&#26356;&#26032;&#24038;&#21491;&#23376;&#33410;&#28857;&#65292;&#28982;&#21518;&#21521;&#19978;&#21512;&#24182;(pushUp)</text><text fill="#000000" font-family="sans-serif" font-size="13" lengthAdjust="spacing" textLength="5" x="1071.5" y="657.3135">-</text><text fill="#000000" font-family="sans-serif" font-size="13" font-weight="bold" lengthAdjust="spacing" textLength="61" x="1080.5" y="657.3135">&#27627;&#26080;&#20132;&#38598;:</text><text fill="#000000" font-family="sans-serif" font-size="13" lengthAdjust="spacing" textLength="52" x="1145.5" y="657.3135">&#30452;&#25509;&#36820;&#22238;</text><rect fill="#F1F1F1" height="33.9688" rx="12.5" ry="12.5" style="stroke:#181818;stroke-width:0.5;" width="140" x="893.5" y="597.9966"/><text fill="#000000" font-family="sans-serif" font-size="12" lengthAdjust="spacing" textLength="120" x="903.5" y="619.1353">&#20174;&#26681;&#33410;&#28857;&#24320;&#22987;&#36882;&#24402;&#26356;&#26032;</text><rect fill="#F1F1F1" height="33.9688" rx="12.5" ry="12.5" style="stroke:#181818;stroke-width:0.5;" width="68" x="929.5" y="687.52"/><text fill="#000000" font-family="sans-serif" font-size="12" lengthAdjust="spacing" textLength="48" x="939.5" y="708.6587">&#26356;&#26032;&#23436;&#25104;</text><polygon fill="#F1F1F1" points="719.25,818.7388,719.25,818.7388,731.25,830.7388,719.25,842.7388,719.25,842.7388,707.25,830.7388,719.25,818.7388" style="stroke:#181818;stroke-width:0.5;"/><polygon fill="#F1F1F1" points="719.25,329.1953,731.25,341.1953,719.25,353.1953,707.25,341.1953,719.25,329.1953" style="stroke:#181818;stroke-width:0.5;"/><polygon fill="#F1F1F1" points="683.25,862.7388,755.25,862.7388,767.25,874.7388,755.25,886.7388,683.25,886.7388,671.25,874.7388,683.25,862.7388" style="stroke:#181818;stroke-width:0.5;"/><text fill="#000000" font-family="sans-serif" font-size="11" lengthAdjust="spacing" textLength="11" x="723.25" y="896.9492">&#21542;</text><text fill="#000000" font-family="sans-serif" font-size="11" lengthAdjust="spacing" textLength="72" x="683.25" y="878.5469">&#32487;&#32493;&#20854;&#20182;&#25805;&#20316;?</text><text fill="#000000" font-family="sans-serif" font-size="11" lengthAdjust="spacing" textLength="11" x="767.25" y="872.1445">&#26159;</text><rect fill="#F1F1F1" height="33.9688" rx="12.5" ry="12.5" style="stroke:#181818;stroke-width:0.5;" width="44" x="697.25" y="918.4492"/><text fill="#000000" font-family="sans-serif" font-size="12" lengthAdjust="spacing" textLength="24" x="707.25" y="939.5879">&#32467;&#26463;</text><ellipse cx="719.25" cy="983.418" fill="none" rx="11" ry="11" style="stroke:#222222;stroke-width:1.0;"/><ellipse cx="719.25" cy="983.418" fill="#222222" rx="6" ry="6" style="stroke:#222222;stroke-width:1.0;"/><line style="stroke:#181818;stroke-width:1.0;" x1="719.25" x2="719.25" y1="147.5625" y2="183.4102"/><polygon fill="#181818" points="715.25,173.4102,719.25,183.4102,723.25,173.4102,719.25,177.4102" style="stroke:#181818;stroke-width:1.0;"/><line style="stroke:#181818;stroke-width:1.0;" x1="719.25" x2="719.25" y1="217.3789" y2="263.2266"/><polygon fill="#181818" points="715.25,253.2266,719.25,263.2266,723.25,253.2266,719.25,257.2266" style="stroke:#181818;stroke-width:1.0;"/><line style="stroke:#181818;stroke-width:1.0;" x1="719.25" x2="719.25" y1="67.2969" y2="113.5938"/><polygon fill="#181818" points="715.25,103.5938,719.25,113.5938,723.25,103.5938,719.25,107.5938" style="stroke:#181818;stroke-width:1.0;"/><line style="stroke:#181818;stroke-width:1.0;" x1="91" x2="91" y1="544.5825" y2="597.9966"/><polygon fill="#181818" points="87,587.9966,91,597.9966,95,587.9966,91,591.9966" style="stroke:#181818;stroke-width:1.0;"/><line style="stroke:#181818;stroke-width:1.0;" x1="91" x2="91" y1="631.9653" y2="687.52"/><polygon fill="#181818" points="87,677.52,91,687.52,95,677.52,91,681.52" style="stroke:#181818;stroke-width:1.0;"/><line style="stroke:#181818;stroke-width:1.0;" x1="665" x2="665" y1="544.5825" y2="564.5825"/><polygon fill="#181818" points="661,554.5825,665,564.5825,669,554.5825,665,558.5825" style="stroke:#181818;stroke-width:1.0;"/><line style="stroke:#181818;stroke-width:1.0;" x1="665" x2="665" y1="598.5513" y2="633.5513"/><polygon fill="#181818" points="661,623.5513,665,633.5513,669,623.5513,665,627.5513" style="stroke:#181818;stroke-width:1.0;"/><line style="stroke:#181818;stroke-width:1.0;" x1="665" x2="665" y1="667.52" y2="689.6606"/><polygon fill="#181818" points="661,679.6606,665,689.6606,669,679.6606,665,683.6606" style="stroke:#181818;stroke-width:1.0;"/><line style="stroke:#181818;stroke-width:1.0;" x1="665" x2="665" y1="723.6294" y2="752.77"/><polygon fill="#181818" points="661,742.77,665,752.77,669,742.77,665,746.77" style="stroke:#181818;stroke-width:1.0;"/><line style="stroke:#181818;stroke-width:1.0;" x1="963.5" x2="963.5" y1="544.5825" y2="597.9966"/><polygon fill="#181818" points="959.5,587.9966,963.5,597.9966,967.5,587.9966,963.5,591.9966" style="stroke:#181818;stroke-width:1.0;"/><line style="stroke:#181818;stroke-width:1.0;" x1="963.5" x2="963.5" y1="631.9653" y2="687.52"/><polygon fill="#181818" points="959.5,677.52,963.5,687.52,967.5,677.52,963.5,681.52" style="stroke:#181818;stroke-width:1.0;"/><line style="stroke:#181818;stroke-width:1.0;" x1="660.25" x2="91" y1="439.1641" y2="439.1641"/><line style="stroke:#181818;stroke-width:1.0;" x1="91" x2="91" y1="439.1641" y2="510.6138"/><polygon fill="#181818" points="87,500.6138,91,510.6138,95,500.6138,91,504.6138" style="stroke:#181818;stroke-width:1.0;"/><text fill="#000000" font-family="sans-serif" font-size="11" font-weight="bold" lengthAdjust="spacing" textLength="95" x="91" y="472.4688">&#21306;&#38388;&#26597;&#35810; - Query</text><line style="stroke:#181818;stroke-width:1.0;" x1="778.25" x2="963.5" y1="439.1641" y2="439.1641"/><line style="stroke:#181818;stroke-width:1.0;" x1="963.5" x2="963.5" y1="439.1641" y2="510.6138"/><polygon fill="#181818" points="959.5,500.6138,963.5,510.6138,967.5,500.6138,963.5,504.6138" style="stroke:#181818;stroke-width:1.0;"/><text fill="#000000" font-family="sans-serif" font-size="11" font-weight="bold" lengthAdjust="spacing" textLength="147" x="963.5" y="472.4688">&#21306;&#38388;&#26356;&#26032; - Range Update</text><line style="stroke:#181818;stroke-width:1.0;" x1="719.25" x2="719.25" y1="451.1641" y2="462.6763"/><line style="stroke:#181818;stroke-width:1.0;" x1="719.25" x2="665" y1="462.6763" y2="462.6763"/><line style="stroke:#181818;stroke-width:1.0;" x1="665" x2="665" y1="462.6763" y2="510.6138"/><polygon fill="#181818" points="661,500.6138,665,510.6138,669,500.6138,665,504.6138" style="stroke:#181818;stroke-width:1.0;"/><text fill="#000000" font-family="sans-serif" font-size="11" font-weight="bold" lengthAdjust="spacing" textLength="140" x="665" y="473.4688">&#21333;&#28857;&#26356;&#26032; - Point Update</text><line style="stroke:#181818;stroke-width:1.0;" x1="91" x2="91" y1="721.4888" y2="830.7388"/><line style="stroke:#181818;stroke-width:1.0;" x1="91" x2="707.25" y1="830.7388" y2="830.7388"/><polygon fill="#181818" points="697.25,826.7388,707.25,830.7388,697.25,834.7388,701.25,830.7388" style="stroke:#181818;stroke-width:1.0;"/><line style="stroke:#181818;stroke-width:1.0;" x1="963.5" x2="963.5" y1="721.4888" y2="830.7388"/><line style="stroke:#181818;stroke-width:1.0;" x1="963.5" x2="731.25" y1="830.7388" y2="830.7388"/><polygon fill="#181818" points="741.25,826.7388,731.25,830.7388,741.25,834.7388,737.25,830.7388" style="stroke:#181818;stroke-width:1.0;"/><line style="stroke:#181818;stroke-width:1.0;" x1="665" x2="665" y1="786.7388" y2="803.7388"/><line style="stroke:#181818;stroke-width:1.0;" x1="665" x2="719.25" y1="803.7388" y2="803.7388"/><line style="stroke:#181818;stroke-width:1.0;" x1="719.25" x2="719.25" y1="803.7388" y2="818.7388"/><polygon fill="#181818" points="715.25,808.7388,719.25,818.7388,723.25,808.7388,719.25,812.7388" style="stroke:#181818;stroke-width:1.0;"/><line style="stroke:#181818;stroke-width:1.0;" x1="719.25" x2="719.25" y1="407.1641" y2="427.1641"/><polygon fill="#181818" points="715.25,417.1641,719.25,427.1641,723.25,417.1641,719.25,421.1641" style="stroke:#181818;stroke-width:1.0;"/><line style="stroke:#181818;stroke-width:1.0;" x1="719.25" x2="719.25" y1="353.1953" y2="373.1953"/><polygon fill="#181818" points="715.25,363.1953,719.25,373.1953,723.25,363.1953,719.25,367.1953" style="stroke:#181818;stroke-width:1.0;"/><line style="stroke:#181818;stroke-width:1.0;" x1="767.25" x2="1449.5" y1="874.7388" y2="874.7388"/><polygon fill="#181818" points="1445.5,655.0981,1449.5,645.0981,1453.5,655.0981,1449.5,651.0981" style="stroke:#181818;stroke-width:1.0;"/><line style="stroke:#181818;stroke-width:1.0;" x1="1449.5" x2="1449.5" y1="341.1953" y2="874.7388"/><line style="stroke:#181818;stroke-width:1.0;" x1="1449.5" x2="731.25" y1="341.1953" y2="341.1953"/><polygon fill="#181818" points="741.25,337.1953,731.25,341.1953,741.25,345.1953,737.25,341.1953" style="stroke:#181818;stroke-width:1.0;"/><line style="stroke:#181818;stroke-width:1.0;" x1="719.25" x2="719.25" y1="842.7388" y2="862.7388"/><polygon fill="#181818" points="715.25,852.7388,719.25,862.7388,723.25,852.7388,719.25,856.7388" style="stroke:#181818;stroke-width:1.0;"/><line style="stroke:#181818;stroke-width:1.0;" x1="719.25" x2="719.25" y1="297.1953" y2="329.1953"/><polygon fill="#181818" points="715.25,319.1953,719.25,329.1953,723.25,319.1953,719.25,323.1953" style="stroke:#181818;stroke-width:1.0;"/><line style="stroke:#181818;stroke-width:1.0;" x1="719.25" x2="719.25" y1="886.7388" y2="918.4492"/><polygon fill="#181818" points="715.25,908.4492,719.25,918.4492,723.25,908.4492,719.25,912.4492" style="stroke:#181818;stroke-width:1.0;"/><line style="stroke:#181818;stroke-width:1.0;" x1="719.25" x2="719.25" y1="952.418" y2="972.418"/><polygon fill="#181818" points="715.25,962.418,719.25,972.418,723.25,962.418,719.25,966.418" style="stroke:#181818;stroke-width:1.0;"/></g></svg>