<svg aria-roledescription="flowchart-v2" role="graphics-document document" viewBox="-8 -8 1787 52" style="max-width: 1787px;" xmlns="http://www.w3.org/2000/svg" width="1787" id="svg" xmlns:xlink="http://www.w3.org/1999/xlink" height="52"><style>#svg{font-family:"trebuchet ms",verdana,arial,sans-serif;font-size:16px;fill:#333;}#svg .error-icon{fill:#552222;}#svg .error-text{fill:#552222;stroke:#552222;}#svg .edge-thickness-normal{stroke-width:2px;}#svg .edge-thickness-thick{stroke-width:3.5px;}#svg .edge-pattern-solid{stroke-dasharray:0;}#svg .edge-pattern-dashed{stroke-dasharray:3;}#svg .edge-pattern-dotted{stroke-dasharray:2;}#svg .marker{fill:#333333;stroke:#333333;}#svg .marker.cross{stroke:#333333;}#svg svg{font-family:"trebuchet ms",verdana,arial,sans-serif;font-size:16px;}#svg .label{font-family:"trebuchet ms",verdana,arial,sans-serif;color:#333;}#svg .cluster-label text{fill:#333;}#svg .cluster-label span,#svg p{color:#333;}#svg .label text,#svg span,#svg p{fill:#333;color:#333;}#svg .node rect,#svg .node circle,#svg .node ellipse,#svg .node polygon,#svg .node path{fill:#ECECFF;stroke:#9370DB;stroke-width:1px;}#svg .flowchart-label text{text-anchor:middle;}#svg .node .katex path{fill:#000;stroke:#000;stroke-width:1px;}#svg .node .label{text-align:center;}#svg .node.clickable{cursor:pointer;}#svg .arrowheadPath{fill:#333333;}#svg .edgePath .path{stroke:#333333;stroke-width:2.0px;}#svg .flowchart-link{stroke:#333333;fill:none;}#svg .edgeLabel{background-color:#e8e8e8;text-align:center;}#svg .edgeLabel rect{opacity:0.5;background-color:#e8e8e8;fill:#e8e8e8;}#svg .labelBkg{background-color:rgba(232, 232, 232, 0.5);}#svg .cluster rect{fill:#ffffde;stroke:#aaaa33;stroke-width:1px;}#svg .cluster text{fill:#333;}#svg .cluster span,#svg p{color:#333;}#svg div.mermaidTooltip{position:absolute;text-align:center;max-width:200px;padding:2px;font-family:"trebuchet ms",verdana,arial,sans-serif;font-size:12px;background:hsl(80, 100%, 96.2745098039%);border:1px solid #aaaa33;border-radius:2px;pointer-events:none;z-index:100;}#svg .flowchartTitleText{text-anchor:middle;font-size:18px;fill:#333;}#svg .today{display:none;}#svg .label foreignObject{overflow:visible;}#svg :root{--mermaid-font-family:"trebuchet ms",verdana,arial,sans-serif;}</style><g><marker orient="auto" markerHeight="12" markerWidth="12" markerUnits="userSpaceOnUse" refY="5" refX="6" viewBox="0 0 10 10" class="marker flowchart" id="svg_flowchart-pointEnd"><path style="stroke-width: 1; stroke-dasharray: 1, 0;" class="arrowMarkerPath" d="M 0 0 L 10 5 L 0 10 z"></path></marker><marker orient="auto" markerHeight="12" markerWidth="12" markerUnits="userSpaceOnUse" refY="5" refX="4.5" viewBox="0 0 10 10" class="marker flowchart" id="svg_flowchart-pointStart"><path style="stroke-width: 1; stroke-dasharray: 1, 0;" class="arrowMarkerPath" d="M 0 5 L 10 10 L 10 0 z"></path></marker><marker orient="auto" markerHeight="11" markerWidth="11" markerUnits="userSpaceOnUse" refY="5" refX="11" viewBox="0 0 10 10" class="marker flowchart" id="svg_flowchart-circleEnd"><circle style="stroke-width: 1; stroke-dasharray: 1, 0;" class="arrowMarkerPath" r="5" cy="5" cx="5"></circle></marker><marker orient="auto" markerHeight="11" markerWidth="11" markerUnits="userSpaceOnUse" refY="5" refX="-1" viewBox="0 0 10 10" class="marker flowchart" id="svg_flowchart-circleStart"><circle style="stroke-width: 1; stroke-dasharray: 1, 0;" class="arrowMarkerPath" r="5" cy="5" cx="5"></circle></marker><marker orient="auto" markerHeight="11" markerWidth="11" markerUnits="userSpaceOnUse" refY="5.2" refX="12" viewBox="0 0 11 11" class="marker cross flowchart" id="svg_flowchart-crossEnd"><path style="stroke-width: 2; stroke-dasharray: 1, 0;" class="arrowMarkerPath" d="M 1,1 l 9,9 M 10,1 l -9,9"></path></marker><marker orient="auto" markerHeight="11" markerWidth="11" markerUnits="userSpaceOnUse" refY="5.2" refX="-1" viewBox="0 0 11 11" class="marker cross flowchart" id="svg_flowchart-crossStart"><path style="stroke-width: 2; stroke-dasharray: 1, 0;" class="arrowMarkerPath" d="M 1,1 l 9,9 M 10,1 l -9,9"></path></marker><g class="root"><g class="clusters"></g><g class="edgePaths"><path marker-end="url(#svg_flowchart-pointEnd)" style="fill:none;" class="edge-thickness-normal edge-pattern-solid flowchart-link LS-U LE-M" id="L-U-M-0" d="M79,18L83.167,18C87.333,18,95.667,18,103.117,18C110.567,18,117.133,18,120.417,18L123.7,18"></path><path marker-end="url(#svg_flowchart-pointEnd)" style="fill:none;" class="edge-thickness-normal edge-pattern-solid flowchart-link LS-M LE-I" id="L-M-I-0" d="M224,18L228.167,18C232.333,18,240.667,18,248.117,18C255.567,18,262.133,18,265.417,18L268.7,18"></path><path marker-end="url(#svg_flowchart-pointEnd)" style="fill:none;" class="edge-thickness-normal edge-pattern-solid flowchart-link LS-I LE-O" id="L-I-O-0" d="M429,18L433.167,18C437.333,18,445.667,18,453.117,18C460.567,18,467.133,18,470.417,18L473.7,18"></path><path marker-end="url(#svg_flowchart-pointEnd)" style="fill:none;" class="edge-thickness-normal edge-pattern-solid flowchart-link LS-O LE-S" id="L-O-S-0" d="M649,18L653.167,18C657.333,18,665.667,18,673.117,18C680.567,18,687.133,18,690.417,18L693.7,18"></path><path marker-end="url(#svg_flowchart-pointEnd)" style="fill:none;" class="edge-thickness-normal edge-pattern-solid flowchart-link LS-S LE-E" id="L-S-E-0" d="M814,18L818.167,18C822.333,18,830.667,18,838.117,18C845.567,18,852.133,18,855.417,18L858.7,18"></path><path marker-end="url(#svg_flowchart-pointEnd)" style="fill:none;" class="edge-thickness-normal edge-pattern-solid flowchart-link LS-E LE-T" id="L-E-T-0" d="M986,18L990.167,18C994.333,18,1002.667,18,1010.117,18C1017.567,18,1024.133,18,1027.417,18L1030.7,18"></path><path marker-end="url(#svg_flowchart-pointEnd)" style="fill:none;" class="edge-thickness-normal edge-pattern-solid flowchart-link LS-T LE-W" id="L-T-W-0" d="M1244,18L1248.167,18C1252.333,18,1260.667,18,1268.117,18C1275.567,18,1282.133,18,1285.417,18L1288.7,18"></path><path marker-end="url(#svg_flowchart-pointEnd)" style="fill:none;" class="edge-thickness-normal edge-pattern-solid flowchart-link LS-W LE-R" id="L-W-R-0" d="M1433,18L1437.167,18C1441.333,18,1449.667,18,1457.117,18C1464.567,18,1471.133,18,1474.417,18L1477.7,18"></path><path marker-end="url(#svg_flowchart-pointEnd)" style="fill:none;" class="edge-thickness-normal edge-pattern-solid flowchart-link LS-R LE-C" id="L-R-C-0" d="M1594,18L1598.167,18C1602.333,18,1610.667,18,1618.117,18C1625.567,18,1632.133,18,1635.417,18L1638.7,18"></path></g><g class="edgeLabels"><g class="edgeLabel"><g transform="translate(0, 0)" class="label"><foreignObject height="0" width="0"><div style="display: inline-block; white-space: nowrap;" xmlns="http://www.w3.org/1999/xhtml"><span class="edgeLabel"></span></div></foreignObject></g></g><g class="edgeLabel"><g transform="translate(0, 0)" class="label"><foreignObject height="0" width="0"><div style="display: inline-block; white-space: nowrap;" xmlns="http://www.w3.org/1999/xhtml"><span class="edgeLabel"></span></div></foreignObject></g></g><g class="edgeLabel"><g transform="translate(0, 0)" class="label"><foreignObject height="0" width="0"><div style="display: inline-block; white-space: nowrap;" xmlns="http://www.w3.org/1999/xhtml"><span class="edgeLabel"></span></div></foreignObject></g></g><g class="edgeLabel"><g transform="translate(0, 0)" class="label"><foreignObject height="0" width="0"><div style="display: inline-block; white-space: nowrap;" xmlns="http://www.w3.org/1999/xhtml"><span class="edgeLabel"></span></div></foreignObject></g></g><g class="edgeLabel"><g transform="translate(0, 0)" class="label"><foreignObject height="0" width="0"><div style="display: inline-block; white-space: nowrap;" xmlns="http://www.w3.org/1999/xhtml"><span class="edgeLabel"></span></div></foreignObject></g></g><g class="edgeLabel"><g transform="translate(0, 0)" class="label"><foreignObject height="0" width="0"><div style="display: inline-block; white-space: nowrap;" xmlns="http://www.w3.org/1999/xhtml"><span class="edgeLabel"></span></div></foreignObject></g></g><g class="edgeLabel"><g transform="translate(0, 0)" class="label"><foreignObject height="0" width="0"><div style="display: inline-block; white-space: nowrap;" xmlns="http://www.w3.org/1999/xhtml"><span class="edgeLabel"></span></div></foreignObject></g></g><g class="edgeLabel"><g transform="translate(0, 0)" class="label"><foreignObject height="0" width="0"><div style="display: inline-block; white-space: nowrap;" xmlns="http://www.w3.org/1999/xhtml"><span class="edgeLabel"></span></div></foreignObject></g></g><g class="edgeLabel"><g transform="translate(0, 0)" class="label"><foreignObject height="0" width="0"><div style="display: inline-block; white-space: nowrap;" xmlns="http://www.w3.org/1999/xhtml"><span class="edgeLabel"></span></div></foreignObject></g></g></g><g class="nodes"><g transform="translate(39.5, 18)" data-id="U" data-node="true" id="flowchart-U-0" class="node default default flowchart-label"><rect height="36" width="79" y="-18" x="-39.5" ry="0" rx="0" style="" class="basic label-container"></rect><g transform="translate(-32, -10.5)" style="" class="label"><rect></rect><foreignObject height="21" width="64"><div style="display: inline-block; white-space: nowrap;" xmlns="http://www.w3.org/1999/xhtml"><span class="nodeLabel">用户消息</span></div></foreignObject></g></g><g transform="translate(176.5, 18)" data-id="M" data-node="true" id="flowchart-M-1" class="node default default flowchart-label"><rect height="36" width="95" y="-18" x="-47.5" ry="0" rx="0" style="" class="basic label-container"></rect><g transform="translate(-40, -10.5)" style="" class="label"><rect></rect><foreignObject height="21" width="80"><div style="display: inline-block; white-space: nowrap;" xmlns="http://www.w3.org/1999/xhtml"><span class="nodeLabel">消息接入层</span></div></foreignObject></g></g><g transform="translate(351.5, 18)" data-id="I" data-node="true" id="flowchart-I-3" class="node default default flowchart-label"><rect height="34" width="155" y="-17" x="-77.5" ry="0" rx="0" style="" class="basic label-container"></rect><g transform="translate(-70, -9.5)" style="" class="label"><rect></rect><foreignObject height="19" width="140"><div style="display: inline-block; white-space: nowrap;" xmlns="http://www.w3.org/1999/xhtml"><span class="nodeLabel">Intent Recognizer</span></div></foreignObject></g></g><g transform="translate(564, 18)" data-id="O" data-node="true" id="flowchart-O-5" class="node default default flowchart-label"><rect height="34" width="170" y="-17" x="-85" ry="0" rx="0" style="" class="basic label-container"></rect><g transform="translate(-77.5, -9.5)" style="" class="label"><rect></rect><foreignObject height="19" width="155"><div style="display: inline-block; white-space: nowrap;" xmlns="http://www.w3.org/1999/xhtml"><span class="nodeLabel">Agent Orchestrator</span></div></foreignObject></g></g><g transform="translate(756.5, 18)" data-id="S" data-node="true" id="flowchart-S-7" class="node default default flowchart-label"><rect height="34" width="115" y="-17" x="-57.5" ry="0" rx="0" style="" class="basic label-container"></rect><g transform="translate(-50, -9.5)" style="" class="label"><rect></rect><foreignObject height="19" width="100"><div style="display: inline-block; white-space: nowrap;" xmlns="http://www.w3.org/1999/xhtml"><span class="nodeLabel">Skill Registry</span></div></foreignObject></g></g><g transform="translate(925, 18)" data-id="E" data-node="true" id="flowchart-E-9" class="node default default flowchart-label"><rect height="34" width="122" y="-17" x="-61" ry="0" rx="0" style="" class="basic label-container"></rect><g transform="translate(-53.5, -9.5)" style="" class="label"><rect></rect><foreignObject height="19" width="107"><div style="display: inline-block; white-space: nowrap;" xmlns="http://www.w3.org/1999/xhtml"><span class="nodeLabel">Skill Executor</span></div></foreignObject></g></g><g transform="translate(1140, 18)" data-id="T" data-node="true" id="flowchart-T-11" class="node default default flowchart-label"><rect height="36" width="208" y="-18" x="-104" ry="0" rx="0" style="" class="basic label-container"></rect><g transform="translate(-96.5, -10.5)" style="" class="label"><rect></rect><foreignObject height="21" width="193"><div style="display: inline-block; white-space: nowrap;" xmlns="http://www.w3.org/1999/xhtml"><span class="nodeLabel">agent_task_event 事件流</span></div></foreignObject></g></g><g transform="translate(1363.5, 18)" data-id="W" data-node="true" id="flowchart-W-13" class="node default default flowchart-label"><rect height="34" width="139" y="-17" x="-69.5" ry="0" rx="0" style="" class="basic label-container"></rect><g transform="translate(-62, -9.5)" style="" class="label"><rect></rect><foreignObject height="19" width="124"><div style="display: inline-block; white-space: nowrap;" xmlns="http://www.w3.org/1999/xhtml"><span class="nodeLabel">Message Writer</span></div></foreignObject></g></g><g transform="translate(1538.5, 18)" data-id="R" data-node="true" id="flowchart-R-15" class="node default default flowchart-label"><rect height="36" width="111" y="-18" x="-55.5" ry="0" rx="0" style="" class="basic label-container"></rect><g transform="translate(-48, -10.5)" style="" class="label"><rect></rect><foreignObject height="21" width="96"><div style="display: inline-block; white-space: nowrap;" xmlns="http://www.w3.org/1999/xhtml"><span class="nodeLabel">结果消息回写</span></div></foreignObject></g></g><g transform="translate(1707.5, 18)" data-id="C" data-node="true" id="flowchart-C-17" class="node default default flowchart-label"><rect height="36" width="127" y="-18" x="-63.5" ry="0" rx="0" style="" class="basic label-container"></rect><g transform="translate(-56, -10.5)" style="" class="label"><rect></rect><foreignObject height="21" width="112"><div style="display: inline-block; white-space: nowrap;" xmlns="http://www.w3.org/1999/xhtml"><span class="nodeLabel">群聊上下文沉淀</span></div></foreignObject></g></g></g></g></g></svg>